# xmcd
#
# Track frame offsets:
#	150
#	26058
#	58204
#	71219
#	84405
#	113552
#	132874
#	149799
#	167613
#	193088
#
# Disc length: 4666 seconds
#
# Revision: 1
# Processed by: cddbd v1.5.1PL2 Copyright (c) Steve Scherf et al.
# Submitted via: audiograbber 1.83.01
#
DISCID=9512380a
DTITLE=Bugs Henderson and The Shuffle Kings - Electric Snow "The Best Of" Cd3
DYEAR=2006
DGENRE=Blues
TTITLE0=Sen - Sa - Shun
TTITLE1=Rock Me Baby
TTITLE2=Maid Of Sugar - Maid Of Spice
TTITLE3=Lie, Beg, Borrow And Steal
TTITLE4=Brandon's Song
TTITLE5=The Big Roar
TTITLE6=Crippled Gnat Bounce
TTITLE7=Drug Store Blues
TTITLE8=Blue Lazer
TTITLE9=Audio Liner Notes
EXTD=
EXTT0=
EXTT1=
EXTT2=
EXTT3=
EXTT4=
EXTT5=
EXTT6=
EXTT7=
EXTT8=
EXTT9=
PLAYORDER=
